# xmcd
#
# Track frame offsets:
#	150
#	15120
#	24672
#	36166
#	45505
#	55588
#	67070
#	79436
#	97815
#	107332
#	116675
#	130228
#	146103
#	162711
#	176086
#	194220
#	210424
#	227429
#	237755
#	247860
#	258324
#	270851
#
# Disc length: 3775 seconds
# Revision: 0
# Processed by: cddbd v1.5.2PL0 Copyright (c) Steve Scherf et al.
# Submitted via: dBpowerAMP V12.0
#
DISCID=250ebd16
DTITLE=Buzz Goertzen - The Idaho Yodeler | Those Good Ol' Songs
DYEAR=1900
DGENRE=Country
TTITLE0=The Idaho Yodeler
TTITLE1=Indian Love Call
TTITLE2=Chime Bells
TTITLE3=There's A Rainbow In Every Teardrop
TTITLE4=Where Did The Yodelers Go
TTITLE5=You're In Love And Don't Know It
TTITLE6=Rose Marie
TTITLE7=Back To Good Ol' Idaho
TTITLE8=She Taught Me How To Yodel
TTITLE9=Cattle Call
TTITLE10=When I Hear Those Pioneers
TTITLE11=Ridin' Down The Canyon
TTITLE12=Home On The Range
TTITLE13=It's A Small World
TTITLE14=Blue Spanish Eyes
TTITLE15=Tear Drops In My Heart
TTITLE16=How The Yodel Was Born
TTITLE17=He Captivates The Ladies
TTITLE18=St. Louis Blues
TTITLE19=Tennessee Polka
TTITLE20=Yodel Blues
TTITLE21=Yodel Melody (Blue Skater's Waltz)
EXTD=
EXTT0=
EXTT1=
EXTT2=
EXTT3=
EXTT4=
EXTT5=
EXTT6=
EXTT7=
EXTT8=
EXTT9=
EXTT10=
EXTT11=
EXTT12=
EXTT13=
EXTT14=
EXTT15=
EXTT16=
EXTT17=
EXTT18=
EXTT19=
EXTT20=
EXTT21=
PLAYORDER=
